# xmcd CD database file
#
# Track frame offsets:
#	150
#	3072
#	19332
#	35592
#	51852
#	68112
#	84372
#	100632
#	116890
#	133150
#	149410
#	165672
#	181930
#
# Disc length: 2644 seconds
#
# Revision: 0
# Processed by: cddbd v1.5.1PL0 Copyright (c) Steve Scherf et al.
# Submitted via: CDex 1.51
#
DISCID=aa0a520d
DTITLE=Disney - 東京ディズニーランド　ディズニー・ファンタジー・オン・パレード
DYEAR=1997
DGENRE=Classic
TTITLE0=ファンファーレ
TTITLE1=アンダーライナー
TTITLE2=オープニング
TTITLE3=美女と野獣
TTITLE4=白雪姫
TTITLE5=ダンボ
TTITLE6=リトル・マーメイド
TTITLE7=ピノキオ
TTITLE8=ファンタジア
TTITLE9=ピーターパン
TTITLE10=不思議の国のアリス
TTITLE11=メリー・ポピンズ
TTITLE12=シンデレラ
EXTD=YEAR: 1997
EXTT0=
EXTT1=
EXTT2=
EXTT3=
EXTT4=
EXTT5=
EXTT6=
EXTT7=
EXTT8=
EXTT9=
EXTT10=
EXTT11=
EXTT12=
PLAYORDER=
